<svg xmlns="http://www.w3.org/2000/svg" width="256" height="256" viewBox="0 0 100 100"><rect width="100" height="100" rx="50" fill="#383838"></rect><path d="M15.35 65.20L15.35 65.20Q14.35 65.20 13.75 64.60Q13.15 64.00 13.15 63.00L13.15 63.00L13.15 37.00Q13.15 36.00 13.75 35.40Q14.35 34.80 15.35 34.80L15.35 34.80L31.95 34.80Q32.10 35.05 32.25 35.47Q32.40 35.90 32.40 36.40L32.40 36.40Q32.40 37.25 32 37.75Q31.60 38.25 30.85 38.25L30.85 38.25L17.20 38.25L17.20 47.90L30.40 47.90Q30.55 48.15 30.70 48.57Q30.85 49.00 30.85 49.50L30.85 49.50Q30.85 50.35 30.45 50.82Q30.05 51.30 29.30 51.30L29.30 51.30L17.20 51.30L17.20 61.80L32.20 61.80Q32.35 62.05 32.50 62.45Q32.65 62.85 32.65 63.40L32.65 63.40Q32.65 64.25 32.25 64.72Q31.85 65.20 31.10 65.20L31.10 65.20L15.35 65.20ZM48.10 62.45L48.10 62.45Q51.45 62.45 53.17 60.92Q54.90 59.40 54.90 57.00L54.90 57.00Q54.90 54.90 53.58 53.60Q52.25 52.30 49.40 51.45L49.40 51.45L45.05 50.15Q41.85 49.20 40.02 47.35Q38.20 45.50 38.20 42.35L38.20 42.35Q38.20 40.45 38.92 38.92Q39.65 37.40 41 36.35Q42.35 35.30 44.23 34.72Q46.10 34.15 48.45 34.15L48.45 34.15Q50.45 34.15 52.17 34.47Q53.90 34.80 55.17 35.37Q56.45 35.95 57.15 36.65Q57.85 37.35 57.85 38.10L57.85 38.10Q57.85 38.80 57.50 39.30Q57.15 39.80 56.60 40.10L56.60 40.10Q55.30 39.10 53.23 38.35Q51.15 37.60 48.60 37.60L48.60 37.60Q45.65 37.60 43.98 38.85Q42.30 40.10 42.30 42.35L42.30 42.35Q42.30 44.10 43.50 45.20Q44.70 46.30 47.50 47.10L47.50 47.10L50.55 48.00Q54.50 49.15 56.78 51.22Q59.05 53.30 59.05 57.00L59.05 57.00Q59.05 60.95 56.20 63.40Q53.35 65.85 48.10 65.85L48.10 65.85Q45.80 65.85 43.92 65.45Q42.05 65.05 40.73 64.40Q39.40 63.75 38.67 62.97Q37.95 62.20 37.95 61.45L37.95 61.45Q37.95 60.60 38.48 60.02Q39 59.45 39.70 59.20L39.70 59.20Q40.25 59.75 41.05 60.32Q41.85 60.90 42.90 61.37Q43.95 61.85 45.25 62.15Q46.55 62.45 48.10 62.45ZM85.55 34.80L85.55 34.80Q85.95 35.15 86.23 35.65Q86.50 36.15 86.50 36.70L86.50 36.70Q86.50 37.40 86.23 37.95Q85.95 38.50 85.45 39.20L85.45 39.20L69 61.75L86.35 61.75Q86.55 62.00 86.70 62.42Q86.85 62.85 86.85 63.40L86.85 63.40Q86.85 64.25 86.43 64.72Q86 65.20 85.30 65.20L85.30 65.20L64.85 65.20Q64.45 64.85 64.18 64.35Q63.90 63.85 63.90 63.30L63.90 63.30Q63.90 62.60 64.18 62.05Q64.45 61.50 64.95 60.80L64.95 60.80L81.40 38.25L64.75 38.25Q64.60 38.00 64.43 37.57Q64.25 37.15 64.25 36.60L64.25 36.60Q64.25 35.75 64.68 35.27Q65.10 34.80 65.85 34.80L65.85 34.80L85.55 34.80Z" fill="#ffffff"></path></svg>